<?xml version="1.0" encoding="utf-8"?>
<!-- Generator: Adobe Illustrator 18.1.0, SVG Export Plug-In . SVG Version: 6.00 Build 0)  -->
<!DOCTYPE svg PUBLIC "-//W3C//DTD SVG 1.1//EN" "http://www.w3.org/Graphics/SVG/1.1/DTD/svg11.dtd">
<svg version="1.1" id="Layer_1" xmlns="http://www.w3.org/2000/svg" xmlns:xlink="http://www.w3.org/1999/xlink" x="0px" y="0px"
	 width="291.2px" height="53.5px" viewBox="105 -0.5 291.2 53.5" style="enable-background:new 105 -0.5 291.2 53.5;"
	 xml:space="preserve">
<style type="text/css">
	.st0{fill:#303840;stroke:#000000;stroke-miterlimit:10;}
	.st1{fill:#DBFFB9;}
	.st2{fill:#F0FFE1;}
</style>
<rect x="-18" y="58.8" class="st0" width="538" height="164"/>
<g>
	<g>
		<path class="st1" d="M131.1,2.2C117.8,2.2,107,13,107,26.3c0,13.3,10.8,24.1,24.1,24.1c13.3,0,24.1-10.8,24.1-24.1
			C155.2,13,144.4,2.2,131.1,2.2z M131.1,48c-12,0-21.7-9.7-21.7-21.7c0-12,9.7-21.7,21.7-21.7c12,0,21.7,9.7,21.7,21.7
			S143.1,48,131.1,48z"/>
		<path class="st1" d="M130.2,27.1L130.2,27.1c0.3,0.2,0.6,0.5,0.9,0.8L130.2,27.1c-1.6-1.1-3.9-0.6-6.1-0.7c-0.3,0-1.7-0.3-1.9-0.3
			c-1.9-0.6-3.9-1.4-5.1-2.9c1.8-0.9,5.1-1.7,6.3-2c0.3-0.1,0.6-0.5,0.3-0.9c-0.7-0.7-3.1-0.3-6.2,0.4c-0.2,0-2.6,0.6-3.5,1.2
			c-0.5,0.6-0.2,1.4,0.2,2c0.8,1.1,1.9,1.9,3.1,2.6c1.7,1.1,3.6,1.9,5.4,2.5c2.5,0.8,5.4,1.5,7.6,0.6
			C132.5,28.6,130.2,27.1,130.2,27.1z"/>
		<path class="st1" d="M130.2,27.2l0.9,0.8C130.8,27.6,130.5,27.4,130.2,27.2z"/>
		<path class="st1" d="M139.1,11.3c-0.4-1.2-1.4-3.2-2.9-2.5c-1.8,0.8-0.2,3.4,0.3,4.9c1.9,4.1,4.8,7.5,6.5,11.5
			c-0.8-0.7-1.3-1.5-2.2-2.4c-1.2-1.2-3-2.7-4.7-1.9c-1.5,0.7-1.2,2.9-1.1,4.2c0.1,1.1,0.7,6.9-0.7,10.3c-1.2,3-5.6,6.4-5.4,7.2
			c-0.3,0.8,2.5,1.9,3.7,2c1.5,0.3,2.7-0.5,3.6-1.7c3.4-6.5,1.7-13.6,1.2-20.4c0.3,0.2,3,2.2,4.3,4c1,1.5,2.4,2.5,3.2,1.9
			c1.4-1.1-4.4-13.4-4.4-13.4S139.8,13.3,139.1,11.3z"/>
		<path class="st1" d="M127.2,17.8c1.2,1.6,3,2.3,4.2,1.6c0.1,0,0.6-0.5,0.7-0.6c3.3-3.8-1.3-8.5-3.7-7.3c-1.1,0.6-1.7,1.3-2,2.1
			c0,0,0,0.1,0,0.1c0,0.1,0,0.1-0.1,0.2c0,0,0,0.1,0,0.1c-0.1,0.6-0.1,1.2,0,1.7C126.5,16.4,126.8,17.1,127.2,17.8z"/>
	</g>
	<g>
		<path class="st1" d="M166.4,32.4l11.6-13h-11.2V14h20v4.6l-11.6,13h11.6v5.4h-20.4V32.4z"/>
		<path class="st1" d="M189.8,27V14h6.5v12.8c0,3.3,1.7,4.9,4.2,4.9c2.6,0,4.2-1.5,4.2-4.7V14h6.5v12.8c0,7.4-4.2,10.7-10.8,10.7
			C193.9,37.5,189.8,34.2,189.8,27z"/>
		<path class="st1" d="M215,14h6.8l5.5,8.9l5.5-8.9h6.8v23h-6.4V23.8l-5.9,9h-0.1l-5.9-9v13.2H215L215,14L215,14z"/>
		<path class="st1" d="M243.6,14h11.8c2.9,0,4.9,0.7,6.3,2.1c0.9,0.9,1.5,2.1,1.5,3.7v0.1c0,2.7-1.5,4.2-3.6,5.1
			c2.8,0.9,4.6,2.5,4.6,5.6v0.1c0,4-3.2,6.4-8.7,6.4h-11.9L243.6,14L243.6,14z M253.9,23.2c1.9,0,3-0.7,3-2v-0.1c0-1.3-1-2-2.9-2
			h-4.1v4H253.9z M254.8,31.9c1.9,0,3.1-0.8,3.1-2.1v-0.1c0-1.3-1-2.1-3.1-2.1h-4.9v4.2H254.8z"/>
		<path class="st1" d="M275.1,13.9h6.2l9.8,23.2h-6.8l-1.7-4.1h-8.9l-1.6,4.1h-6.7L275.1,13.9z M280.7,28l-2.6-6.6l-2.6,6.6H280.7z"
			/>
		<path class="st1" d="M303.3,37.1h-2.6V16.4h-7.7V14H311v2.4h-7.7L303.3,37.1L303.3,37.1z"/>
		<path class="st1" d="M332.6,16.4h-14.1v7.9h12.6v2.4h-12.6v8.1h14.2v2.4h-16.8V14h16.7V16.4z"/>
		<path class="st1" d="M348.5,37.5c-6.7,0-11.6-5.2-11.6-11.9c0-6.6,4.9-12,11.7-12c4.2,0,6.7,1.5,9,3.7l-1.8,1.9
			c-1.9-1.8-4.1-3.2-7.2-3.2c-5.1,0-8.9,4.1-8.9,9.5s3.9,9.5,8.9,9.5c3.2,0,5.2-1.2,7.4-3.3l1.7,1.7
			C355.3,35.9,352.7,37.5,348.5,37.5z"/>
		<path class="st1" d="M364.9,26.7v10.4h-2.6V14h2.6v10.2h13.3V14h2.6v23h-2.6V26.7H364.9z"/>
	</g>
</g>
<rect x="-293" y="149.5" class="st2" width="39" height="39"/>
<rect x="-223" y="149.5" class="st1" width="39" height="39"/>
<g>
	<path class="st1" d="M386.7,19.6H386v-5h-1.9v-0.6h4.4v0.6h-1.9V19.6z"/>
	<path class="st1" d="M392.4,18.1L392.4,18.1l-2.1-3v4.5h-0.6v-5.6h0.6l2,3.1l2-3.1h0.6v5.6h-0.6v-4.5L392.4,18.1z"/>
</g>
</svg>
